<svg xmlns="http://www.w3.org/2000/svg" viewBox="0 0 245.94 147"><defs><style>.cls-1,.cls-2{fill:#d09800;}.cls-2{fill-rule:evenodd;}</style></defs><title>Navbar Logo</title><g id="Layer_2" data-name="Layer 2"><g id="Layer_3" data-name="Layer 3"><path class="cls-1" d="M38.65,94.16c.07-2.47-.71-16.3-1.31-29.86-.15-3.39-.29-6.77-.41-9.95v-.49l0-.45q0-.45.06-.84c.12-1,.35-1.8.75-2,.56-.2,1.53-.3,1.92.07,1,1-1.57,1.52-1.19.36-1,.45-.18,1.57.65,1.85A4.14,4.14,0,0,0,43,51.63c.47-.84-.39-1.86-1.42-2.26s-2.36-.26-3.3-.84c-.3-.18-.56-.5-.25-.68.56-.32,2.19.31,2.93.36,1.54.09,3.12-.78,3.32-1.6a1.52,1.52,0,0,0-1.54-1.75c-.79,0-1.81.42-1.52.94,1-.53,1.36.5.09.54a1.17,1.17,0,0,1-1.11-.63c-.2-.38-.1-1.4-.5-2s-.8-1-1.37-.89c-.36.09-.38.52-.76.4.2-.13.39-.25.4-.42-.45-.58-1.85-1.24-.66-1.65.37-.12,1.1,0,1.51-.09a2.13,2.13,0,0,0,1.38-1.12c.31-.94-1.4-1.85-2.24-.92.08.11.45-.19.43,0-.27.57-1.45.56-1.75.22s.32-.79.2-1.27c0-.14-1.65-1.49-1.73-1.6l.15,1.12L36,54.35l2.2,45.15A38.4,38.4,0,0,0,38.65,94.16Z"/><path class="cls-1" d="M82.56,44.43C79.62,47,64,62,48.57,76.61c-3.86,3.66-7.71,7.29-11.35,10.7l0,0h0l0,0,0,.05-.11.09-.22.18-.42.35c-.27.23-.54.45-.8.64a4.77,4.77,0,0,1-2.33,1.23c-.62-.07-1.48-.4-1.45-.86,0-1.22,2.59-.54,1.25.21a1.16,1.16,0,0,0,1.14-1.73c-.59-.81-3-1-4.14-.58a1.65,1.65,0,0,0-.89,2.38c.46.75,1.63,1.19,1.86,2,.07.27,0,.64-.41.65-.72,0-1.45-1.17-2-1.51a4.53,4.53,0,0,0-4.05-.13c-.79.52-1.2,1.54-.35,2,.61.36,1.81.43,2-.1-1.26,0-.62-1,.42-.47a.67.67,0,0,1,.32,1c-.18.38-1.17,1.14-1.41,1.8s-.28,1.15.29,1.27c.36.09.77-.25,1,0a1.3,1.3,0,0,0-.7.16c-.16.65.37,1.76-.94,1.58-.41,0-.84-.48-1.28-.56a3.7,3.7,0,0,0-2.09.31c-1.08.62-.54,2.06.95,1.67,0-.12-.52,0-.3-.21.72-.34,1.65.16,1.57.56s-.95.49-1.28.92c-.09.12,0,1.86-.06,2l.88-.95L38,87.72,89.19,39C87,40.66,84.46,42.76,82.56,44.43Z"/><path class="cls-1" d="M96.68,90.25c0-.26-.07-.68-.14-1.23s-.16-1.24-.31-2l-.48-2.7L95.08,81c-.26-1.16-.56-2.4-.87-3.69l-.51-2c-.18-.66-.34-1.35-.54-2l-.6-2.08-.3-1.06-.33-1.06L91.26,67c-.23-.71-.47-1.42-.71-2.13-.46-1.43-1-2.85-1.48-4.24-.24-.7-.52-1.39-.77-2.07l-.77-2-.16-.47-.14-.43c-.09-.29-.16-.57-.23-.82-.26-1-.3-1.78,0-2a2.14,2.14,0,0,1,1.88-.26c1.36.78-1,1.73-1,.55-.79.6.37,1.54,1.28,1.67,1.3.19,3.07-1,3.23-1.87a1.37,1.37,0,0,0-.62-1.24,3.65,3.65,0,0,0-1.6-.72c-1.15-.2-2.38.17-3.51-.22-.35-.12-.73-.37-.49-.6.41-.41,2.22-.1,3-.19,1.52-.19,2.73-1.33,2.58-2.16a2,2,0,0,0-2.2-1.42c-.77.13-1.57.76-1.08,1.2.75-.7,1.52.23.31.51a1.47,1.47,0,0,1-1.33-.4c-.34-.32-.66-1.33-1.29-1.84s-1.21-.82-1.69-.58c-.3.15-.14.57-.56.53.14-.16.27-.32.21-.48-.68-.47-2.3-.8-1.34-1.43.3-.2,1.06-.2,1.41-.39A1.58,1.58,0,0,0,85,42.12c-.13-1-2.18-1.46-2.55-.4.12.08.34-.28.42-.06,0,.6-1.13.83-1.56.57s0-.8-.38-1.23c-.1-.12-2.23-1-2.36-1.13l.64,1A166.49,166.49,0,0,1,86.62,56.7a149.83,149.83,0,0,1,10,38.16c.09-.74.13-1.55.15-2.34,0-.4,0-.8,0-1.18S96.7,90.59,96.68,90.25Z"/><path class="cls-1" d="M58.58,94.1c.18-.39-.3-2.92-.29-4.86s0-3.49.63-3.73a2.22,2.22,0,0,1,1.92,0c1.1,1-1.48,1.56-1.17.39-1,.48-.09,1.57.76,1.82a4,4,0,0,0,3.72-1.37c.42-.85-.5-1.85-1.55-2.22s-2.38-.19-3.35-.74c-.31-.18-.59-.49-.29-.68.54-.33,2.2.26,2.95.28,1.54,0,3.07-.87,3.22-1.69a1.59,1.59,0,0,0-1.64-1.71c-.8,0-1.79.48-1.47,1,1-.55,1.39.47.13.55a1.25,1.25,0,0,1-1.16-.6c-.22-.37-.18-1.4-.61-2s-.87-1-1.42-.85c-.36.09-.35.53-.74.41.2-.13.38-.26.38-.43-.49-.57-1.93-1.18-.76-1.63.36-.13,1.09,0,1.5-.13a2,2,0,0,0,1.31-1.15c.26-1-1.51-1.82-2.29-.86.08.1.44-.2.43,0-.23.57-1.42.59-1.73.26s.27-.79.12-1.27c0-.14-1.73-1.44-1.83-1.56l.22,1.12,1.78,16.81.57,5.49A1.87,1.87,0,0,0,58.58,94.1Z"/><path class="cls-1" d="M125.46,104.55c.1-.35.24-.92.42-1.67.09-.37.19-.79.29-1.25l.26-1.52a54.89,54.89,0,0,0,.81-8.23,58,58,0,0,0-.69-10.7,63.67,63.67,0,0,0-3-11.7l-.25-.73c0-.12-.09-.24-.13-.37L123,68l-.58-1.44-.3-.72L122,65.5l-.16-.36-.65-1.41-.33-.71c-.1-.23-.21-.47-.32-.68q-.33-.68-.69-1.26a7.51,7.51,0,0,0-1.6-1.94l0,0h0l0,0-.07-.06a.69.69,0,0,0-.13-.11,2.39,2.39,0,0,0-.26-.21l-.12-.09-.13-.09-.12-.08-.12-.07-.12-.08-.12-.06-.21-.13-.21-.11a2.12,2.12,0,0,0-.2-.12,1.44,1.44,0,0,1-.3-.21.35.35,0,0,1-.16-.21c-.11-.4-.17-1.07.41-1.28a1.5,1.5,0,0,1,.52-.08.86.86,0,0,1,.39.1.46.46,0,0,1,.24.47.56.56,0,0,1-.31.41.81.81,0,0,1-.66,0,.67.67,0,0,0,.32.38.82.82,0,0,0,.25.07,1.27,1.27,0,0,0,.29,0l.33,0,.34,0a3.12,3.12,0,0,0,.67-.17,1.7,1.7,0,0,0,1.08-1.3,1.47,1.47,0,0,0-.18-.9,2.47,2.47,0,0,0-.33-.41,2.56,2.56,0,0,0-.46-.33,3.46,3.46,0,0,0-1.23-.36,5,5,0,0,0-1.34,0,4.78,4.78,0,0,0-1.12.32,2.28,2.28,0,0,0-.71.51A2.16,2.16,0,0,0,114,56a3.86,3.86,0,0,1-.12.59,1.91,1.91,0,0,1-.26.56,1.07,1.07,0,0,1-.14.16.79.79,0,0,1-.18.14.43.43,0,0,1-.41,0,1,1,0,0,1-.34-.92c0-.41.11-.84.07-1.1a1.93,1.93,0,0,0-1.31-1.29,4.56,4.56,0,0,0-1.21-.28,4.39,4.39,0,0,0-1.26.09,4.72,4.72,0,0,0-1,.38,3.65,3.65,0,0,0-.44.26,2.2,2.2,0,0,0-.36.3,1.23,1.23,0,0,0-.26.31.82.82,0,0,0-.13.31.55.55,0,0,0,.16.55,2,2,0,0,0,1.07.45l.31,0,.3,0a1,1,0,0,0,.5-.22c-.31-.07-.47-.16-.52-.27s0-.21.15-.29a.91.91,0,0,1,1.1.21c.23.27.1.65-.31,1a3.34,3.34,0,0,1-.42.28l-.59.36a4.94,4.94,0,0,0-.56.44,1.65,1.65,0,0,0-.39.47,2.14,2.14,0,0,0-.16.39,1.26,1.26,0,0,0,0,.37.52.52,0,0,0,.42.49c.36.09.73-.19.92.06a1.09,1.09,0,0,0-.66.11,1.69,1.69,0,0,0,0,.5,3.44,3.44,0,0,1,.07.51c0,.3-.13.5-.77.45-.41,0-.92-.41-1.35-.47a3.13,3.13,0,0,0-2,.5.85.85,0,0,0-.15,1.26,1.33,1.33,0,0,0,1.55.24c0-.11-.52,0-.36-.16a1.29,1.29,0,0,1,1-.12c.35.09.62.27.65.46.07.44-.75.57-.92,1,0,.12.67,1.76.69,1.9l.49-1a19.6,19.6,0,0,1,2.32-3.33,10.2,10.2,0,0,1,1.38-1.26c.12-.1.25-.18.37-.27l.35-.22.37-.21.4-.19a8.65,8.65,0,0,1,1.7-.55,6.55,6.55,0,0,1,1.59-.15,3.94,3.94,0,0,1,1.18.19,3.34,3.34,0,0,1,1,.6,7.07,7.07,0,0,1,1.7,2.13l.2.35.19.36.19.37.18.39.74,1.58.37.79c.12.27.22.53.33.8l.66,1.6c.1.26.22.53.32.8l.28.8.57,1.61a60.33,60.33,0,0,1-.34,39.47c.49-.95,1-2,1.45-3S125.17,105.47,125.46,104.55Z"/><path class="cls-1" d="M132.3,114.06c-.08.45-.2,1.42-.34,2.79l-.12,1.09,0,.29v.1l-6.67.89h0l0,0L125,119l-.39-.58c-.54-.8-1.15-1.67-1.73-2.61l-.93-1.46c-.32-.5-.62-1-.93-1.54-.65-1-1.26-2.16-1.89-3.3-1.23-2.29-2.46-4.71-3.5-7.16l-.4-.91c-.13-.31-.25-.62-.37-.92l-.72-1.83-.65-1.8-.32-.89-.28-.88-.12-.49-.11-.45c-.07-.3-.13-.59-.17-.85-.15-1.07-.11-1.85.25-2a2.16,2.16,0,0,1,1.91-.14c1.27.85-1.17,1.68-1.08.49-.86.55.19,1.59,1.1,1.75a3.65,3.65,0,0,0,3.42-1.71c.27-.86-.85-1.75-1.93-2s-2.39,0-3.44-.49c-.34-.16-.67-.45-.39-.66.48-.37,2.23.11,3,.08a4.12,4.12,0,0,0,2-.66,1.81,1.81,0,0,0,.92-1.21,1.66,1.66,0,0,0-1.82-1.57c-.8,0-1.73.55-1.35,1,.9-.6,1.43.38.18.53a1.3,1.3,0,0,1-1.21-.53c-.26-.36-.36-1.38-.83-2s-.94-1-1.49-.79c-.34.11-.3.54-.7.44.19-.14.36-.28.34-.45-.26-.27-.77-.56-1.07-.83s-.37-.55.2-.79c.35-.14,1.09,0,1.49-.17a2,2,0,0,0,1.26-1.19c.11-.47-.3-.91-.81-1.12a1.27,1.27,0,0,0-1.52.3c.08.1.43-.21.42,0-.2.58-1.38.63-1.72.29s.26-.81.1-1.29c0-.13-1.76-1.46-1.85-1.58l.23,1.14.13,1.08.07.54.08.53.33,2.15c.27,1.43.52,2.86.86,4.28A80.64,80.64,0,0,0,112,95.28a93.41,93.41,0,0,0,7.38,16.27q2.3,4,5,7.82l0,.06,0,0h0c-1.79.24,15.62-2.09,8.25-1.11h0l0-.13,0-.26.05-.52.09-1,.2-2.07.38-4.15A24.44,24.44,0,0,0,132.3,114.06Z"/><path class="cls-1" d="M153.51,59.11c-.41.93-1.43,7.35-2.58,12.21-.5,1.89-1.08,3.4-1.73,3.56s-1.57.13-1.87-.29c-.79-1.09,1.91-1.32,1.25-.22,1.08-.33.56-1.52-.19-1.89a4.49,4.49,0,0,0-4,.83c-.67.77-.06,1.88.86,2.39s2.26.52,3.05,1.19c.25.22.44.56.08.7-.62.25-2.08-.55-2.8-.68-1.49-.26-3.27.42-3.65,1.2A1.34,1.34,0,0,0,143,80c.78.11,1.89-.22,1.73-.76-1.11.41-1.22-.65,0-.55a1,1,0,0,1,.95.75c.11.39-.24,1.39,0,2s.55,1.11,1.13,1c.38,0,.5-.47.85-.3-.23.1-.45.21-.5.37.31.62,1.54,1.43.26,1.7-.39.08-1.07-.15-1.51-.08a2.49,2.49,0,0,0-1.62,1c-.54.89.94,2,2,1.15,0-.11-.49.14-.41-.08a1.34,1.34,0,0,1,1.78,0c.24.44-.51.74-.5,1.23,0,.14,1.27,1.65,1.32,1.78l.12-1.12,3.26-16.71,2.68-13.86A5.79,5.79,0,0,0,153.51,59.11Z"/><path class="cls-1" d="M167.05,87.16c-.39-1-3.61-6.16-6.62-11.3-.76-1.28-1.49-2.56-2.17-3.77-.32-.61-.6-1.17-.81-1.68-.43-1-.59-1.77-.29-2A2,2,0,0,1,159,68c1.48.67-.7,1.79-.93.61-.69.66.63,1.52,1.55,1.58,1.32.09,2.9-1.22,2.91-2.1s-1.32-1.65-2.48-1.78-2.34.32-3.52,0c-.37-.1-.78-.34-.58-.58.36-.43,2.21-.23,2.93-.37,1.49-.28,2.53-1.47,2.29-2.28a2.09,2.09,0,0,0-2.33-1.28c-.76.16-1.48.83-1,1.24.67-.73,1.53.15.36.49a1.53,1.53,0,0,1-1.36-.32c-.38-.31-.81-1.29-1.5-1.77s-1.27-.77-1.73-.51c-.29.17-.09.58-.52.55.14-.17.25-.33.17-.49-.72-.44-2.37-.71-1.46-1.38.28-.21,1-.24,1.37-.45a1.48,1.48,0,0,0,.72-1.38c-.18-1-2.26-1.4-2.56-.32.12.07.32-.29.42-.07,0,.59-1.08.87-1.53.62s-.1-.81-.46-1.24c-.11-.11-2.3-1-2.44-1.08l.71,1,9.31,15.6,10.2,17A7.46,7.46,0,0,0,167.05,87.16Z"/><path class="cls-1" d="M192.17,7.92c-.25.47-.63,1.21-1.12,2.19-.26.49-.49,1-.78,1.65l-.9,2c-.32.72-.67,1.48-1,2.3l-1.06,2.59-1.16,2.85L185,24.59c-.39,1.07-.83,2.17-1.18,3.31s-.76,2.31-1.16,3.51l-.29.9c-.1.3-.18.61-.27.91l-.54,1.86c-.18.62-.37,1.25-.55,1.88l-.28.95-.25,1c-.32,1.29-.66,2.59-1,3.91-.18.66-.32,1.33-.46,2s-.29,1.34-.44,2l-.44,2c-.08.34-.13.68-.19,1l-.19,1c-.24,1.36-.49,2.72-.73,4.08-.39,2.73-.84,5.44-1.1,8.12-.07.67-.14,1.34-.22,2l-.11,1-.08,1c-.1,1.32-.2,2.62-.29,3.9v0h0v.09l0,.12,0,.23a3.5,3.5,0,0,0-.07.45c0,.29-.09.56-.14.82-.2,1-.49,1.76-.91,1.9-.57.18-1.54.24-1.9-.15-1-1,1.69-1.44,1.21-.31,1-.4.31-1.54-.49-1.86a4.21,4.21,0,0,0-3.9,1.11c-.54.83.24,1.89,1.23,2.32s2.34.34,3.23,1c.28.19.52.51.19.68-.58.3-2.16-.37-2.89-.44a4.48,4.48,0,0,0-2.2.39,2.1,2.1,0,0,0-1.21,1.12,1.49,1.49,0,0,0,1.45,1.8c.8.05,1.84-.38,1.57-.9-1,.51-1.34-.54-.07-.56a1.2,1.2,0,0,1,1.09.67c.18.38,0,1.4.41,2s.75,1,1.32.91c.36-.08.4-.51.78-.38-.21.12-.4.25-.42.41.21.29.65.61.91.9s.31.55-.29.75c-.37.12-1.09,0-1.51.07a2.14,2.14,0,0,0-1.39,1.11c-.32.94,1.39,1.85,2.23.93-.07-.11-.45.19-.42,0,.27-.57,1.45-.55,1.75-.21s-.33.78-.21,1.26c0,.13,1.63,1.46,1.71,1.58l-.14-1.11-.16-4.15c0-.35,0-.7,0-1V79.31c0-.7,0-1.39,0-2.08l.08-2.08.07-2.08c0-.69,0-1.39.11-2.08,1.37-24.22,8.42-48.3,20.85-71-.85,1.24-1.74,2.62-2.59,4l-.63,1c-.2.33-.38.67-.57,1C192.85,6.68,192.49,7.32,192.17,7.92Z"/><path class="cls-1" d="M197.88,73c.05-.32.12-.73.19-1.22s.19-1.07.31-1.73.24-1.39.39-2.2c.06-.41.16-.83.25-1.27s.19-.9.29-1.38A123.89,123.89,0,0,1,203.16,51a131.58,131.58,0,0,1,7.68-18l.62-1.18.31-.6.33-.59c.44-.8.89-1.59,1.34-2.39s.92-1.6,1.4-2.4l1.45-2.4,1.55-2.39c.25-.4.51-.8.77-1.2l.17-.26.15-.24c0-.08.09-.16.13-.24a1.71,1.71,0,0,0,.13-.23c0-.08.08-.16.1-.23l0-.09a.93.93,0,0,0,0-.13.58.58,0,0,0,0-.26.53.53,0,0,0-.49-.36,1.7,1.7,0,0,0-.39,0l-.19,0L218,18l-1.67.43-1.76.46-7,1.82L193.92,24.2l-.08,0h-.06l-.08,0-.17,0-.32.07-.64.13c-.41.09-.81.17-1.18.23a6.16,6.16,0,0,1-2.93.15c-.46-.29-.91-.88-.53-1.26,1-1,2.61.52.88.65a1.84,1.84,0,0,0,2.34-1c.16-.9-1.7-2-3-2a2.76,2.76,0,0,0-2.66,1.65c-.21.8.41,1.61-.08,2.41a.74.74,0,0,1-.86.38c-.61-.25-.28-1.51-.46-2-.37-1-2.09-1.77-3.28-1.63s-2.24.83-1.92,1.57a1.45,1.45,0,0,0,1.79.68c-1.06-.48.25-1,.73-.24.17.3,0,.65-.52.93a26.26,26.26,0,0,0-2.62,1c-.57.37-1.15.85-.78,1.17s.85.08.8.37a1.4,1.4,0,0,0-.71-.13c-.66.49-1.11,1.61-2.06,1-.3-.2-.32-.72-.62-.95a3.33,3.33,0,0,0-2-.52c-1.4.1-2.1,1.51-.54,1.74.12-.08-.41-.23-.09-.28.87,0,1.25.75.87,1.06s-1.19,0-1.82.28c-.17.07-1.51,1.55-1.65,1.65l1.5-.47,23-6,15.67-4.12,7.84-2.05.41-.11.2,0,.14,0h0v0c-.07.15-.15.31-.24.47s-.19.33-.3.51l-.42.64-.87,1.34c-1.18,1.78-2.23,3.59-3.32,5.4-.14.22-.27.45-.4.68l-.38.68-.76,1.37L211,31c-.25.46-.48.92-.72,1.38l-1.42,2.76-1.33,2.79a119.44,119.44,0,0,0-11.36,46c.14-.88.27-1.8.4-2.74l.19-1.42.23-1.42c.14-1,.28-1.89.42-2.79Z"/><path class="cls-1" d="M187.69,74.53c.39-.24,1.16-.8,2.22-1.59.52-.4,1.1-.88,1.74-1.39l1-.81,1-.9c.72-.62,1.49-1.27,2.24-2s1.57-1.44,2.33-2.22l1.19-1.17.3-.3.28-.3.58-.61L201.78,62c.38-.41.74-.84,1.12-1.26L204,59.5l1.05-1.27,1-1.25,1-1.24.34-.41.34-.38c.22-.24.41-.48.61-.7.79-.87,1.48-1.45,1.95-1.46.63,0,1.56.2,1.66.65.27,1.21-2.4.85-1.29,0a1,1,0,0,0-.65,1.83c.78.74,3.24.68,4.22.07a1.51,1.51,0,0,0,.75-1.22,1.78,1.78,0,0,0-.53-1.27c-.68-.67-2-.94-2.45-1.73-.16-.25-.2-.6.2-.67.7-.13,1.79.9,2.43,1.16a4.27,4.27,0,0,0,4-.54,1.2,1.2,0,0,0-.36-2.07c-.71-.23-1.92-.09-2,.47,1.23-.23.94.84-.24.53a.81.81,0,0,1-.65-.89,3.62,3.62,0,0,1,.38-.89,2.66,2.66,0,0,0,.29-1.11c0-.54-.19-1.15-.79-1.16-.38,0-.63.38-.92.17a1,1,0,0,0,.6-.28c-.06-.33-.32-.72-.41-1s0-.58.63-.63c.41,0,1,.29,1.46.28a3,3,0,0,0,1.85-.73.84.84,0,0,0-.08-1.26,1.36,1.36,0,0,0-1.58-.11c0,.11.51-.08.39.13-.53.47-1.65.19-1.76-.19s.66-.66.75-1.13c0-.14-.91-1.72-.94-1.84L215,40.32l-.41,1c-.14.32-.27.65-.43,1l-.92,1.93c-.15.33-.33.64-.5,1l-.51,1-.5,1-.56.94-.55.95c-.18.31-.36.63-.57.94l-1.19,1.86c-.4.62-.85,1.23-1.27,1.84-.21.31-.42.62-.64.92l-.68.9-1.09,1.45L204,58.3c-.75,1-1.59,1.87-2.39,2.8-.4.47-.84.92-1.27,1.38L199,63.85l-1.35,1.33c-.45.45-.88.9-1.36,1.33a105.2,105.2,0,0,1-12.25,9.9c.62-.27,1.28-.58,1.9-.91.31-.16.62-.32.91-.49l.42-.24Z"/><path class="cls-1" d="M240.08,108.19l-1.64-1.13-1.24-.84-1.46-1L234,104l-.92-.64-1-.69-2-1.49c-.71-.52-1.45-1-2.18-1.62A203.3,203.3,0,0,1,208.6,83c-1.56-1.56-3.14-3.09-4.58-4.66l-1.1-1.16c-.36-.38-.73-.76-1.07-1.15l-2-2.3-.19-.23-.16-.2-.32-.41c-.21-.26-.38-.53-.54-.77-.64-1-1-1.71-.71-2a1.91,1.91,0,0,1,1.74-.56c1.6.53-.32,1.85-.8.7-.54.72.94,1.45,1.86,1.42,1.32,0,2.6-1.5,2.45-2.37s-1.62-1.49-2.81-1.51-2.27.53-3.49.31c-.39-.07-.83-.27-.67-.53.28-.46,2.15-.41,2.83-.61,1.43-.4,2.26-1.67,1.91-2.44a2.29,2.29,0,0,0-2.52-1.07c-.73.22-1.35.93-.74,1.29.54-.77,1.54,0,.44.46a1.63,1.63,0,0,1-1.42-.22,5.37,5.37,0,0,1-.76-.76,4.23,4.23,0,0,0-1-.9c-.6-.35-1.37-.68-1.79-.39-.27.18,0,.58-.44.58.11-.17.2-.35.1-.5-.77-.39-2.47-.59-1.64-1.31.25-.22,1-.29,1.31-.51a1.47,1.47,0,0,0,.51-.69,1.23,1.23,0,0,0,.06-.72c-.28-.95-2.39-1.3-2.59-.21.13.07.3-.31.41-.09.1.6-1,.93-1.46.69s-.18-.81-.59-1.22c-.11-.12-2.4-.93-2.55-1l.82,1A163.44,163.44,0,0,0,199,74.06a207.85,207.85,0,0,0,46.95,38.53c-.9-.73-1.92-1.51-2.94-2.26Z"/><path class="cls-1" d="M60.21,134.72s0,.06.1.1l.18.13a2.89,2.89,0,0,0,.67.29,4.18,4.18,0,0,0,1,.16,3.17,3.17,0,0,0,1-.12,3.37,3.37,0,0,0,1.1-.56,2.62,2.62,0,0,0,.44-.44,2.13,2.13,0,0,0,.29-.47,1.3,1.3,0,0,0,0-.93c0-.09-.08-.17-.1-.25l-.08-.12,0-.06,0-.06a2.56,2.56,0,0,0-.41-.47,4.58,4.58,0,0,0-.7-.55A7.19,7.19,0,0,0,63,131l-.15-.09-.14-.07c-.08,0-.2-.1-.29-.16a.86.86,0,0,1-.4-.32.91.91,0,0,1,.42-1.28,1.17,1.17,0,0,1,.91,0,.46.46,0,0,1,.27.46.55.55,0,0,1-.28.41.54.54,0,0,1-.28.08l-.17,0-.22-.07a.79.79,0,0,0,.16.23.52.52,0,0,0,.19.14l.11,0,.13,0,.29,0a5.5,5.5,0,0,0,.66-.07l.35-.08.31-.11a1.64,1.64,0,0,0,1-1.32,1.52,1.52,0,0,0-.23-.9,2.57,2.57,0,0,0-.35-.4,2.44,2.44,0,0,0-.49-.32,3.36,3.36,0,0,0-.61-.22l-.34-.07-.32-.05a3.89,3.89,0,0,0-1.15.05,3.06,3.06,0,0,0-.48.12l-.21.08a.62.62,0,0,0-.12.09l-.52.43c-.36.31-.7.68-1.08,1a3.76,3.76,0,0,1-.67.46,2.78,2.78,0,0,1-1,.27h-.41a2.79,2.79,0,0,1-.4-.07c-.25-.08-.45-.21-.46-.37s.53-.43,1.09-.6l.43-.14c.14,0,.28-.1.41-.15a4.19,4.19,0,0,0,.62-.33,4.8,4.8,0,0,0,.73-.68c.21-.23.4-.46.61-.65a2.44,2.44,0,0,1,.29-.27l.14-.1.14-.09a2.17,2.17,0,0,1,.36-.19.81.81,0,1,0-.23,0,3.67,3.67,0,0,1-.49,0l-.71-.1a3.5,3.5,0,0,0-1.21,0c-.34.08-.58.27-.44.45a1.37,1.37,0,0,1,.64-.14c.16,0,.25,0,.28.08s0,.11-.15.18a2.39,2.39,0,0,1-.66.25,1.52,1.52,0,0,1-.67,0,.82.82,0,0,1-.28-.14.68.68,0,0,1-.2-.24,1.63,1.63,0,0,1,0-.87,4,4,0,0,0,.17-1.11,2.85,2.85,0,0,0-.18-.79.65.65,0,0,0-.58-.43c-.39,0-.68.44-1,.2a1.11,1.11,0,0,0,.64-.32,6.57,6.57,0,0,1-.08-1.28c.08-.42.4-.77,1.12-.71a1.23,1.23,0,0,1,.61.29,2,2,0,0,0,.61.32,3.55,3.55,0,0,0,.57.07h.59a8,8,0,0,0,1-.07,2.16,2.16,0,0,0,.75-.28l.16-.1.15-.12a3.07,3.07,0,0,0,.26-.25.64.64,0,0,0,.19-.56.5.5,0,0,0-.23-.26,1.44,1.44,0,0,0-.55-.2c-.1,0,0,.11.09.17s.11.11-.1.13a1.41,1.41,0,0,1-1.09-.42c-.17-.22-.08-.52.31-.69a2.52,2.52,0,0,1,.72-.17,5,5,0,0,1,.77,0l.78.12c.27,0,.55.08.86.1.09,0,.39,0,.84,0a8,8,0,0,1,1.7.16,6.72,6.72,0,0,1,1.79.62,5.43,5.43,0,0,1,.87.54,5.63,5.63,0,0,0-.65-.64,5.46,5.46,0,0,0-.78-.55,4.63,4.63,0,0,0-.43-.24l-.45-.21a8.31,8.31,0,0,0-.91-.33,11,11,0,0,0-3.31-.48,12.09,12.09,0,0,0-3.07.41l-.73.23a6.59,6.59,0,0,0-.73.3l-.17.08-.14.07-.29.15c-.19.1-.36.2-.53.31a8.56,8.56,0,0,0-1.67,1.37,10.17,10.17,0,0,0-1.72,2.6l-.14.3-.14.32c0,.12-.09.23-.13.34l-.06.18,0,.09,0,.12c-.06.19-.09.35-.13.53a4.5,4.5,0,0,0-.08.51,4.45,4.45,0,0,0,0,1,4.5,4.5,0,0,0,.08.51,4,4,0,0,0,.15.49,4.08,4.08,0,0,0,.49,1c0,.07.1.15.16.22l.18.22a5.14,5.14,0,0,0,.4.41,6.27,6.27,0,0,0,1,.73,8.37,8.37,0,0,0,2.52,1c.23.06.47.11.71.15l.37.07.37.05.75.09.38,0,.25,0c.55,0,1,.08,1.2.12l.14,0,.11,0a1.55,1.55,0,0,1,.23.06,3,3,0,0,1,.93.5,2,2,0,0,1,.52.64,1.11,1.11,0,0,1,.07.29.76.76,0,0,1,0,.26,1.42,1.42,0,0,1-.37.62,2.58,2.58,0,0,1-.72.5,2.46,2.46,0,0,1-.71.18,3.25,3.25,0,0,1-.83-.08,3,3,0,0,1-.83-.36,1.3,1.3,0,0,1-.41-.41.87.87,0,0,0-.17.16.52.52,0,0,0-.08.19.41.41,0,0,1,0,.11l0,.09A.48.48,0,0,0,60.21,134.72Z"/><path class="cls-1" d="M88.69,122.07c-.64-.33-7.9-.6-8-1.76A1.54,1.54,0,0,1,81,119c.87-.6.79,1.22,0,.84.14.71,1.06.29,1.39-.24a2.63,2.63,0,0,0-.23-2.7c-.5-.41-1.36.07-1.81.71s-.59,1.57-1.15,2.14c-.18.18-.45.32-.52.09-.12-.41.6-1.44.75-1.93.33-1,0-2.2-.54-2.42a1.2,1.2,0,0,0-1.48.85c-.15.53,0,1.27.39,1.13-.19-.74.58-.86.4,0a1,1,0,0,1-.63.68c-.3.09-1-.09-1.49.11s-.85.43-.85.83c0,.25.29.31.14.56,0-.16-.11-.3-.22-.32-.48.24-1.18,1.11-1.26.26,0-.26.21-.73.2-1a1.32,1.32,0,0,0-.55-1.06c-.6-.31-1.52.75-1,1.41.09,0,0-.32.1-.28.35.24.14,1-.15,1.2s-.49-.3-.85-.27c-.1,0-1.31,1-1.41,1l.81,0,18.24,2A1.69,1.69,0,0,0,88.69,122.07Z"/><path class="cls-1" d="M75,132.83c.39-.42,0-4.83,1.62-5a4.7,4.7,0,0,1,1.91.11c1,.47-1.69.59-1.22.1-1,.15-.3.67.5.82a8.37,8.37,0,0,0,3.89-.38c.54-.35-.24-.82-1.23-1s-2.34-.21-3.23-.5c-.28-.09-.52-.23-.19-.3a19.65,19.65,0,0,1,2.89.28c1.53.1,3.18-.21,3.43-.55s-.28-.76-1.39-.82c-.79,0-1.84.11-1.59.34,1-.19,1.31.27,0,.24a1.65,1.65,0,0,1-1.06-.32c-.17-.17,0-.61-.33-.89a1.88,1.88,0,0,0-1.3-.44c-.36,0-.42.21-.79.14.22,0,.41-.09.44-.16-.41-.27-1.76-.62-.53-.74.37,0,1.09.06,1.51,0a3,3,0,0,0,1.46-.42c.39-.39-1.25-.86-2.16-.49.07,0,.47-.06.42,0a2.66,2.66,0,0,1-1.76,0c-.31-.18.39-.32.3-.54,0-.06-1.52-.7-1.6-.76l.06.49-.85,11.22A1.88,1.88,0,0,0,75,132.83Z"/><path class="cls-1" d="M110.27,124c0,.22.1.75.22,1.52a13.15,13.15,0,0,1,.15,3,7.8,7.8,0,0,1-.12.94c0,.17-.07.34-.11.51s-.09.34-.14.51a8.46,8.46,0,0,1-1,2,9.37,9.37,0,0,1-1.72,1.94A10.44,10.44,0,0,1,105.1,136a6.14,6.14,0,0,1-.64.27l-.32.13-.35.11c-.24.07-.47.15-.7.2s-.45.11-.67.14a11.86,11.86,0,0,1-2.4.2c-.35,0-.66,0-.94-.08s-.52-.08-.73-.13c-.41-.11-.66-.23-.73-.35a.82.82,0,0,1-.09-.73.75.75,0,0,1,.21-.32,1,1,0,0,1,.39-.22,2.14,2.14,0,0,1,.56-.1,1.19,1.19,0,0,1,.43,0,.9.9,0,0,1,.54.38.31.31,0,0,1-.09.46.8.8,0,0,1-.38.13,3.12,3.12,0,0,1-.65,0,2.05,2.05,0,0,0,1.82.24,2.85,2.85,0,0,0,.88-.38,1.17,1.17,0,0,0,.45-.49c.15-.46-.33-.95-.83-1.39l-.38-.32c-.13-.1-.25-.2-.37-.28s-.22-.17-.33-.24a3,3,0,0,0-.3-.16,1.55,1.55,0,0,0-1.12,0c-.21.07-.41.15-.64.25s-.45.21-.66.33c-.42.23-.82.55-1.25.83a3.72,3.72,0,0,1-.72.36,2.32,2.32,0,0,1-1,.14,2,2,0,0,1-.75-.17c-.22-.11-.39-.25-.36-.42s.6-.39,1.17-.51a5.83,5.83,0,0,0,1.46-.44,4.27,4.27,0,0,0,.78-.58c.23-.21.43-.41.64-.58a7.16,7.16,0,0,0,.83-.67c.06-.11-.08-.24-.35-.42a2.57,2.57,0,0,0-1.25-.37,2.6,2.6,0,0,0-1.17.21c-.32.15-.49.38-.31.58.47-.26.81-.16.89,0s0,.15-.09.23a1.61,1.61,0,0,1-.61.23,1.26,1.26,0,0,1-.67,0,1.1,1.1,0,0,1-.55-.4,1.94,1.94,0,0,1-.21-.89,3.59,3.59,0,0,0-.19-1.11c-.23-.53-.58-1.1-1.17-1-.37,0-.49.48-.84.32.23-.11.45-.22.49-.38-.32-.62-1.57-1.42-.3-1.7.39-.09,1.08.14,1.51.06a2.53,2.53,0,0,0,1.61-1c.51-.9-1-2-2-1.14,0,.11.49-.14.41.08a1.33,1.33,0,0,1-1.77,0c-.25-.43.49-.75.47-1.24,0-.13-1.31-1.63-1.37-1.76l-.09,1.13-.72,4.18-.17,1c-.06.34-.13.72-.18,1.12a8.06,8.06,0,0,0,0,2.8,5.51,5.51,0,0,0,.67,1.68,5.34,5.34,0,0,0,.61.85c.11.14.26.28.39.42a5.6,5.6,0,0,0,.45.4,7.47,7.47,0,0,0,1,.72,10.92,10.92,0,0,0,1.13.58,13.29,13.29,0,0,0,2.44.77l.31.06.31.05.63.1.62.06.32,0,.31,0,.62,0,.63,0c.41,0,.83-.05,1.24-.08l.61-.08c.21,0,.41-.06.62-.11l.61-.12.6-.16c.4-.1.79-.25,1.18-.39l.52-.22.5-.23a11.66,11.66,0,0,0,2.44-1.58,9.93,9.93,0,0,0,1.7-1.83,9.19,9.19,0,0,0,1.07-1.92,9.57,9.57,0,0,0,.33-1,9.05,9.05,0,0,0,.21-1,11.62,11.62,0,0,0-.06-3.64,32.09,32.09,0,0,0-.72-3.19A3.81,3.81,0,0,0,110.27,124Z"/><path class="cls-1" d="M114.9,132.92c.31-.42-.93-4.47.68-4.79a5.28,5.28,0,0,1,1.92-.07c1,.35-1.57.7-1.19.21-1,.23-.18.64.65.71a8.27,8.27,0,0,0,3.78-.7c.48-.36-.39-.73-1.41-.84s-2.36,0-3.29-.18c-.3-.06-.57-.18-.25-.26a20.28,20.28,0,0,1,2.92,0c1.53,0,3.11-.47,3.3-.81s-.41-.68-1.53-.64c-.79,0-1.81.26-1.52.46,1-.27,1.36.13.09.22a2,2,0,0,1-1.11-.21c-.2-.14-.1-.56-.5-.79a2.16,2.16,0,0,0-1.36-.29c-.36,0-.38.23-.76.2.21-.07.39-.13.4-.19-.45-.22-1.85-.41-.66-.64.37-.07,1.09,0,1.51-.11a2.76,2.76,0,0,0,1.37-.52c.31-.4-1.4-.68-2.23-.26.07,0,.45-.1.42,0a2.81,2.81,0,0,1-1.74.17c-.34-.14.32-.33.2-.52s-1.65-.52-1.73-.56l.15.44,1.22,10.45A1.82,1.82,0,0,0,114.9,132.92Z"/><path class="cls-1" d="M124.2,131.75a6,6,0,0,0,1.18.74,5.84,5.84,0,0,0,1,.39,4.55,4.55,0,0,0,1,.21,3.07,3.07,0,0,0,.84,0l.23-.07.05,0h0a.09.09,0,0,1,.06,0l.05,0a1.42,1.42,0,0,0,.44-.59,3.57,3.57,0,0,0,.29-1.06,12.42,12.42,0,0,0,.09-1.46,6.27,6.27,0,0,1,.08-1.18.76.76,0,0,1,.33-.55,2.3,2.3,0,0,1,1.89-.2c.33.2.41.41.36.59a.75.75,0,0,1-.48.39c-.45.14-1,0-1-.5a.57.57,0,0,0-.18.93,1.93,1.93,0,0,0,.48.46,2,2,0,0,0,.61.29,3.55,3.55,0,0,0,2.16-.27,2.59,2.59,0,0,0,1.45-1.27,1.48,1.48,0,0,0-.52-1.45,3.35,3.35,0,0,0-1.69-.84,6.54,6.54,0,0,0-1.77.07,7.2,7.2,0,0,1-1.73.08c-.36,0-.75-.13-.59-.36a2.06,2.06,0,0,1,1.17-.51c.57-.13,1.21-.18,1.55-.29a2.24,2.24,0,0,0,.9-.49,1.73,1.73,0,0,0,.31-.35,1.57,1.57,0,0,0,.18-.42,1.77,1.77,0,0,0-.72-1.76,4.7,4.7,0,0,0-2.13-.87,2,2,0,0,0-1.69.33.87.87,0,0,0-.14.85,1,1,0,0,0,.77.62c-.08-.46.27-.57.61-.46s.57.44.17.79a1.06,1.06,0,0,1-.61.23,3.31,3.31,0,0,1-.87,0c-.28-.06-.74-.23-1.27-.37a5.36,5.36,0,0,0-1.61-.21,4.14,4.14,0,0,0-1.08.21c-.3.12-.47.27-.44.48s.16.21.26.3.17.17,0,.29a.63.63,0,0,0-.42-.36,9.38,9.38,0,0,0-1.21.52c-.37.15-.68.17-.92-.25-.15-.25.09-.75,0-1a1.64,1.64,0,0,0-.67-.63,3,3,0,0,0-1-.32,1.92,1.92,0,0,0-1.67.55c-.28.36-.19.79.49,1,.14-.06-.31-.3,0-.3.82.14.85,1,.43,1.18s-1.07-.16-1.72,0a7,7,0,0,0-1,.68c-.46.33-.92.67-1,.71l1.55-.26a33.2,33.2,0,0,1,5.16-.29c.38,0,.72,0,1.06.08a9.75,9.75,0,0,1,1,.16,8.18,8.18,0,0,1,1.66.51,3.67,3.67,0,0,1,.6.33,2.84,2.84,0,0,1,.45.36,3.33,3.33,0,0,1,.71,1.06,7.87,7.87,0,0,1,.47,1.59c0,.31.1.58.12.85a4.74,4.74,0,0,1,0,.75,2.87,2.87,0,0,1-.16.87,1.06,1.06,0,0,1-.24.4s0,0,0,0h0s-.06,0-.25,0a1.32,1.32,0,0,1-.33,0,2.07,2.07,0,0,1-.41-.07l-.21-.05-.22-.07a5.47,5.47,0,0,1-.53-.22,17.73,17.73,0,0,1-2.66-1.61A4.07,4.07,0,0,0,124.2,131.75Z"/><path class="cls-1" d="M135.26,133c.36-.36-.38-4,1.28-4.2a5.71,5.71,0,0,1,1.91,0c1,.36-1.64.53-1.21.12-1,.15-.26.56.56.67a9.81,9.81,0,0,0,3.86-.43c.52-.29-.3-.67-1.31-.82s-2.34-.11-3.25-.33c-.29-.06-.54-.18-.22-.24a23.35,23.35,0,0,1,2.91.15,6.86,6.86,0,0,0,3.39-.54c.21-.27-.33-.62-1.44-.64-.79,0-1.83.13-1.57.32,1-.18,1.33.19.06.2a2,2,0,0,1-1.08-.24c-.18-.14,0-.5-.4-.73a2.22,2.22,0,0,0-1.32-.33c-.36,0-.4.19-.78.14.21,0,.41-.09.42-.15-.42-.21-1.79-.46-.57-.6.37,0,1.09,0,1.51,0a3.22,3.22,0,0,0,1.43-.39c.36-.34-1.31-.68-2.19-.35.07,0,.46-.07.42,0a3.17,3.17,0,0,1-1.75.07c-.33-.15.36-.28.26-.46s-1.57-.54-1.65-.58l.09.4-.09,9.31A2,2,0,0,0,135.26,133Z"/><path class="cls-1" d="M152.78,119.16l.4,0,.51.06.61.1.31.07.3.08a7.84,7.84,0,0,1,2.5,1.22,5.71,5.71,0,0,1,1.73,2.1,4.93,4.93,0,0,1,.37,1.23,6,6,0,0,1,.06,1.19,9,9,0,0,1-.1,1.08l-.15,1-.33,2-.34,2.14-.18,1.11,0,.21,0,.24-.12.49a5.4,5.4,0,0,1-.37.94,4.72,4.72,0,0,1-1.38,1.63l-.23.17-.12.08-.14.07c-.17.1-.33.21-.51.3s-.38.18-.57.25l-.6.21a9.78,9.78,0,0,1-2.6.37,12,12,0,0,1-2.62-.26l-.59-.14L148,137l-.53-.18-.27-.1-.21-.09a10.27,10.27,0,0,1-1.37-.7l-.28-.18-.23-.17a5.11,5.11,0,0,1-.42-.32,5.85,5.85,0,0,1-.61-.59,2.3,2.3,0,0,1-.32-.47.41.41,0,0,1,0-.32,1.61,1.61,0,0,1,1.59-.75,1.06,1.06,0,0,1,.76.41.45.45,0,0,1,0,.52.69.69,0,0,1-.54.28,1,1,0,0,1-.39-.09,1,1,0,0,1-.37-.31c-.14.41.29.78.88,1a3.49,3.49,0,0,0,.93.19,2.31,2.31,0,0,0,.83-.08,1.82,1.82,0,0,0,1.07-1.31c0-.13.08-.27.11-.4a1.8,1.8,0,0,0,.07-.38,1.3,1.3,0,0,0-.09-.65.81.81,0,0,0-.17-.24,1.21,1.21,0,0,0-.24-.2,2.68,2.68,0,0,0-.66-.28,5.94,5.94,0,0,0-1.7-.2,12.41,12.41,0,0,0-1.71.27,3.87,3.87,0,0,1-1.79,0c-.41-.1-.85-.41-.66-.67s.73-.26,1.34-.27a9,9,0,0,0,1.59-.08,4.93,4.93,0,0,0,1.84-.88,4.46,4.46,0,0,0,.58-.51.8.8,0,0,0,.27-.41c0-.22-.09-.44-.34-.62a1.16,1.16,0,0,0-.22-.13,2.21,2.21,0,0,0-.27-.12,3.09,3.09,0,0,0-1.91,0,.68.68,0,0,0-.36.25.24.24,0,0,0,0,.31,1.1,1.1,0,0,1,.61-.13.35.35,0,0,1,.29.14c0,.08,0,.17-.12.25a1.29,1.29,0,0,1-.63.2,1.18,1.18,0,0,1-1.18-.51,1.85,1.85,0,0,1-.1-.38c0-.15,0-.33,0-.52s0-.38,0-.57,0-.19,0-.28,0-.19,0-.27a3.19,3.19,0,0,0,0-.42,2.57,2.57,0,0,0-.07-.4.61.61,0,0,0-.53-.46c-.38,0-.75.45-1,.19a1.35,1.35,0,0,0,.71-.34,3.23,3.23,0,0,0,0-.64,2.94,2.94,0,0,1,.12-.67.87.87,0,0,1,.39-.49.81.81,0,0,1,.33-.12,1.46,1.46,0,0,1,.46,0,1.24,1.24,0,0,1,.56.33,1.7,1.7,0,0,0,.58.36,4.55,4.55,0,0,0,1.13.13,3.37,3.37,0,0,0,.56,0,2.94,2.94,0,0,0,.46,0,1.81,1.81,0,0,0,.75-.36,1.21,1.21,0,0,0,.44-.55.54.54,0,0,0,0-.56A1.06,1.06,0,0,0,147,122c-.14.09.46.21.09.29a1.35,1.35,0,0,1-1.08-.32.43.43,0,0,1,0-.69,1.48,1.48,0,0,1,.55-.22l.3,0h.33l.68,0a4.38,4.38,0,0,0,.71-.07c.07,0,.28-.12.59-.23a9.67,9.67,0,0,1,1.19-.4l.68-.17.64-.12c.4-.06.7-.09.78-.09-.47-.06-1-.12-1.43-.14h-1.07l-.35,0a14.85,14.85,0,0,0-4.81.94,12.45,12.45,0,0,0-3.59,2,8.21,8.21,0,0,0-2.25,2.84,7.22,7.22,0,0,0-.29.82c-.07.26-.12.52-.17.78s-.05.53-.06.79,0,.51,0,.77a7.54,7.54,0,0,0,1,2.9,11,11,0,0,0,2,2.49,15.91,15.91,0,0,0,2.77,2.05l.2.11.1.06.11.06.48.25c.32.15.65.3,1,.43l.25.1.29.11.36.12.35.11.71.19.72.16a13.18,13.18,0,0,0,3.42.24,10.19,10.19,0,0,0,3.18-.71,7,7,0,0,0,2.38-1.6,5.17,5.17,0,0,0,1.22-2.2c0-.2.1-.4.14-.6l.05-.3,0-.19.1-.61.19-1.22.39-2.44.19-1.22c.06-.4.14-.84.18-1.35a6.51,6.51,0,0,0,0-1.75,6.36,6.36,0,0,0-.27-1,5,5,0,0,0-.56-1.07,6.68,6.68,0,0,0-2.14-2,8.77,8.77,0,0,0-1.74-.79,9.85,9.85,0,0,0-1-.27l-.63-.11-.61-.06a10.57,10.57,0,0,0-2.34.11,9,9,0,0,0-2.13.62,6.37,6.37,0,0,0-1.88,1.21,3.7,3.7,0,0,0-1.09,1.87,4,4,0,0,1,1.21-1.67,6,6,0,0,1,1.84-1.07A9.46,9.46,0,0,1,152.78,119.16Z"/><path class="cls-1" d="M156.82,133.94a.63.63,0,0,0,.05.33,2.2,2.2,0,0,0,.33.57,2.91,2.91,0,0,0,.73.63,5.53,5.53,0,0,0,1.33.54,14.05,14.05,0,0,0,4.72.3c.47,0,1-.09,1.45-.16s.9-.15,1.27-.24a6.22,6.22,0,0,0,.92-.3l0,0,0,0,.07,0,.13-.09a.48.48,0,0,0,.21-.49.57.57,0,0,0-.16-.23l-.13-.1-.08,0-.11-.06-1-.49c-.38-.18-.76-.37-1.14-.59l-.28-.16-.28-.18-.26-.18-.25-.19-.24-.2a2.09,2.09,0,0,1-.22-.2,3.78,3.78,0,0,1-.34-.39c-.37-.5-.43-.88-.31-1a1.49,1.49,0,0,1,.82-.48,1.85,1.85,0,0,1,.52-.06,1.6,1.6,0,0,1,.48.11,1.36,1.36,0,0,1,.27.13,1.76,1.76,0,0,1,.2.12.69.69,0,0,1,.23.26.51.51,0,0,1-.05.53.62.62,0,0,1-.56.27,1.09,1.09,0,0,1-.42-.14,1.63,1.63,0,0,1-.22-.17,1.55,1.55,0,0,1-.19-.24.56.56,0,0,0,0,.34.87.87,0,0,0,.21.33l.17.16a1.07,1.07,0,0,0,.21.13,2.43,2.43,0,0,0,.46.22l.49.13a4.22,4.22,0,0,0,.49,0,2.28,2.28,0,0,0,.79-.11,1.78,1.78,0,0,0,1-1.32,4.84,4.84,0,0,0,.1-.81c0-.12,0-.23,0-.33a.62.62,0,0,1,0-.13.4.4,0,0,0,0-.11c0-.07,0-.12,0-.15l0,0s0,0-.05-.05l-.07,0-.08,0-.21-.06-.6-.15-.36-.09-.38-.1c-.25-.08-.53-.13-.81-.19s-.57-.1-.85-.17a2.72,2.72,0,0,1-1.49-.69c-.24-.26-.36-.69,0-.83a2,2,0,0,1,1.32.31,7.76,7.76,0,0,0,1.37.57,5.43,5.43,0,0,0,1.14.09,6.53,6.53,0,0,0,1.1-.09,2.77,2.77,0,0,0,1.53-.58,1.12,1.12,0,0,0,.17-.21,2.72,2.72,0,0,0,.11-.25.79.79,0,0,0,0-.43,1.34,1.34,0,0,0-.79-.76,2.7,2.7,0,0,0-1.17-.24c-.38,0-.7.16-.71.41.6-.06.83.14.78.3s-.4.34-1,.19a.77.77,0,0,1-.65-.86,2.18,2.18,0,0,1,.49-.84c.25-.34.56-.67.78-1a7.47,7.47,0,0,1,.63-.76,1,1,0,0,0,.23-.33.19.19,0,0,0-.08-.27,1.5,1.5,0,0,0-.74-.08c-.26,0-.48,0-.42-.15a4.87,4.87,0,0,0,1.14,0c.17-.07.34-.15.54-.22l.63-.2.68-.14a6.12,6.12,0,0,1,.74,0l.37,0a1.86,1.86,0,0,1,.34.06,2.32,2.32,0,0,1,.58.19.75.75,0,0,1,.49.68c0,.16-.23.28-.44.4a1.21,1.21,0,0,0-.51.4,1.87,1.87,0,0,0-.13.4c0,.14-.06.27-.09.4a3.26,3.26,0,0,0-.09.67,1,1,0,0,0,.22.56,2.4,2.4,0,0,0,.55.49,1.51,1.51,0,0,0,.76.23.91.91,0,0,0,.42-.09,1,1,0,0,0,.4-.31c-.06-.13-.48.22-.42-.07a.91.91,0,0,1,.15-.23.9.9,0,0,1,.19-.2,1.13,1.13,0,0,1,.49-.21.86.86,0,0,1,.93.39.94.94,0,0,1-.14.95,4,4,0,0,0-.51.89c0,.08.12.65.21,1.18s.21,1,.21,1.07c.21-.35.46-.76.7-1.24.13-.22.25-.46.37-.71a6.76,6.76,0,0,0,.3-.83,4,4,0,0,0-.37-3.14,5.63,5.63,0,0,0-1.3-1.51,7,7,0,0,0-.66-.47,8.25,8.25,0,0,0-.79-.43c-.3-.13-.6-.25-.94-.36s-.69-.18-1.06-.26a10.67,10.67,0,0,0-1.09-.12,7.79,7.79,0,0,0-1.08,0l-.55,0-.54.08-.52.1-.48.13a9.05,9.05,0,0,0-.88.3l-.2.09-.18.08-.35.18c-.23.12-.42.24-.62.36a8.4,8.4,0,0,0-1.64,1.42,10.35,10.35,0,0,0-1,1.31l-.19.32-.16.28c-.1.18-.21.37-.31.57a11.9,11.9,0,0,0-.57,1.29,6.58,6.58,0,0,0-.35,1.57,5.56,5.56,0,0,0,0,.91c0,.15.05.35.09.52s.09.34.15.51a5.09,5.09,0,0,0,1.27,1.89l.22.22.24.2c.17.13.34.27.51.38l.26.17.25.16.47.27c.62.33,1.21.58,1.68.78l.67.28.28.12.07,0,.05,0,.12.06.06,0h0s0,0,0,0,0,0,0,0h0l0,0a2.55,2.55,0,0,1-.37.13,7.18,7.18,0,0,1-1.17.26c-.47.08-1,.15-1.55.19s-1,.07-1.52.08a11.79,11.79,0,0,1-2.61-.25,5.68,5.68,0,0,1-1-.3l-.21-.09-.13-.07a1.1,1.1,0,0,1-.14-.09.67.67,0,0,1-.14-.09,2.24,2.24,0,0,1-.49-.48,1.89,1.89,0,0,1-.26-.51.63.63,0,0,1,0-.36.53.53,0,0,1,.07-.15.68.68,0,0,0-.52.09.39.39,0,0,0-.1.08l-.09.11A.55.55,0,0,0,156.82,133.94Z"/><path class="cls-2" d="M29.83,70.38c-1.81-14.64-1.59-29.44,0-29.49s3.84,14.67,4,29.36c.17,15.14-.13,20.7.42,36.35C32.74,91,31.69,85.46,29.83,70.38Z"/><path class="cls-2" d="M55.38,62.65C61,60,66.52,57.23,71.54,54.53S81,49.14,84.69,46.72L86,45.84,87.3,45l1.2-.83c.39-.26.75-.54,1.11-.79l1-.75c.33-.24.67-.47,1-.7.6-.46,1.17-.88,1.69-1.25.25-.19.51-.36.74-.53l.64-.47c.4-.29.76-.54,1.07-.73.62-.38,1-.54,1.2-.47s.08.4-.23.93c-.16.26-.37.58-.64.95l-.44.59c-.17.21-.36.42-.56.65-.4.45-.85.94-1.35,1.48-.24.27-.53.53-.82.81l-.91.87c-.32.29-.63.61-1,.91l-1.1.94-1.17,1-1.29,1A100.9,100.9,0,0,1,74.37,57a176.91,176.91,0,0,1-16.78,8c-6.1,2.55-11.31,4.55-16,6.38s-9,3.44-13.23,5.13S19.86,79.89,15.24,82A170.49,170.49,0,0,0,0,89.75c5.45-3.36,10.31-6,14.77-8.23s8.55-4.18,12.62-6.07,8.15-3.73,12.69-5.77S49.59,65.41,55.38,62.65Z"/><path class="cls-2" d="M82.84,64.85C80.77,59.45,78.6,54.07,77,50l-.28-.75-.28-.71c-.18-.47-.35-.91-.5-1.33L75.56,46c-.12-.36-.23-.7-.32-1-.34-1.23-.36-2,0-2.09s1.1.46,2.07,1.54l.76.91c.27.33.53.7.81,1.1s.57.81.87,1.26l.45.69.44.73a54,54,0,0,1,6.13,15.12l.45,2.1.11.5.09.49.17,1,.32,1.83.23,1.72c.08.55.16,1.1.22,1.63l.15,1.58c0,.51.11,1,.15,1.53l.09,1.52.11,1.52.05,1.55L89,82.8l0,1.67c0,.57,0,1.16,0,1.76l0,1.87v1l0,1-.08,2.17-.11-2.17,0-1-.1-1-.18-1.86c-.06-.61-.16-1.19-.24-1.75L88,82.85l-.29-1.57-.3-1.53L87,78.26l-.35-1.48c-.12-.5-.27-1-.4-1.5l-.43-1.53c-.14-.52-.32-1-.48-1.59l-.52-1.66-.6-1.76-.32-.92-.16-.47-.18-.48Z"/><path class="cls-2" d="M60.38,83.82c-1.77-5.73-1.51-11.66.1-11.79s3.78,5.62,3.91,11.48c.14,6-.17,8.29.35,14.5C63.24,91.87,62.21,89.73,60.38,83.82Z"/><path class="cls-2" d="M101.49,84.94l-.15-.45-.11-.46-.22-.91-.14-.91-.06-.46,0-.46,0-.91,0-.9,0-.44.06-.45.12-.87a16.25,16.25,0,0,1,2.51-6.07l.42-.61.46-.57.44-.54c.14-.17.31-.33.46-.48.31-.31.59-.61.88-.86s.58-.48.85-.68l.38-.28c.13-.08.25-.16.37-.22a5.66,5.66,0,0,1,.64-.33,1.07,1.07,0,0,1,.82-.13c.71.34-.8,2.43-2.11,5.63a25.46,25.46,0,0,0-1.59,5.5l-.1.77c0,.13,0,.26,0,.39l0,.4-.06.79,0,.8v.4l0,.41,0,.81.08.82,0,.41.07.4a17,17,0,0,0,2,5.77,22.22,22.22,0,0,0,3.25,4.44,26.82,26.82,0,0,0,4.72,4,35.32,35.32,0,0,0,7.53,3.74,45.33,45.33,0,0,1-8.06-3.32,36.54,36.54,0,0,1-5.59-3.65,28.37,28.37,0,0,1-4.42-4.35A19.77,19.77,0,0,1,101.49,84.94Z"/><path class="cls-2" d="M136.44,60.75a22.22,22.22,0,0,0-2.32-5l-.39-.58-.41-.57-.43-.54-.46-.53a18.1,18.1,0,0,0-7.16-4.77,19.5,19.5,0,0,0-2.76-.76,17.69,17.69,0,0,0-2.69-.29h-1l-.33,0-.63,0-.62.06-.31,0-.29.05-.59.08-.56.11c-.18,0-.36.07-.53.12a15.58,15.58,0,0,0-3.43,1.23c-1.78.89-2.51,1.72-2.93,1.59-.18-.06-.21-.32-.07-.8a3.44,3.44,0,0,1,.19-.39,4,4,0,0,1,.28-.45l.4-.5.12-.13.14-.13.29-.27a12.14,12.14,0,0,1,3.71-2.11c.21-.09.43-.15.64-.22l.68-.21.71-.18.37-.09.38-.08.78-.14.82-.11.41,0,.43,0,.87,0a21.27,21.27,0,0,1,3.7.18,21.66,21.66,0,0,1,3.71.85,21,21,0,0,1,6.58,3.42,18.7,18.7,0,0,1,2.55,2.38c.18.21.37.42.55.64l.5.67.46.68.43.68a19.3,19.3,0,0,1,2.16,5.73,37.81,37.81,0,0,1,.68,5.49l.07,1.25,0,1.21c0,.79,0,1.56,0,2.3a64.4,64.4,0,0,1-.66,8.36,75,75,0,0,1-1.67,8.37,79.71,79.71,0,0,1-3.37,10.14,61,61,0,0,0,2.57-10.22,58.74,58.74,0,0,0,.73-8.35,65.39,65.39,0,0,0-.42-8.23c-.09-.73-.17-1.48-.3-2.25l-.17-1.17-.22-1.21A39.61,39.61,0,0,0,136.44,60.75Z"/><path class="cls-2" d="M153.53,83.24c-.56,8.36-3.17,16.61-4.78,16.49s-1.43-8.57.77-16.8c2.27-8.49,3.46-11.57,5.43-20.37C154,71.44,154.11,74.62,153.53,83.24Z"/><path class="cls-2" d="M159.23,75.71c-8.19-7.28-14.73-15.4-13.39-16s9.91,6.55,16.74,14.47c7,8.16,9.3,11.29,16.9,19.57C171.07,85.82,167.67,83.21,159.23,75.71Z"/><path class="cls-2" d="M182.57,51C190.23,27,199.93,3.29,201.5,3.55s-5.74,24.41-15,48.08c-4.77,12.2-8.24,20.51-12,28.87-1.88,4.18-3.83,8.37-6.14,13s-5,9.84-8.47,15.92c3.26-6.14,5.67-11.36,7.7-16.09s3.68-9,5.22-13.2C175.91,71.72,178.63,63.31,182.57,51Z"/><path class="cls-2" d="M203.89,30.58c-14.68,3.2-29.95,5.05-30.36,4s14.25-4.55,29.34-6.65l5.41-.75c1.68-.22,3.23-.44,4.7-.65,2.94-.42,5.57-.85,8.15-1.39a54.94,54.94,0,0,0,7.85-2.2c.69-.23,1.35-.52,2.05-.82.35-.13.68-.31,1-.47l.52-.25c.17-.09.35-.17.52-.27.67-.38,1.39-.76,2.05-1.22a24.62,24.62,0,0,0,2-1.47c-.64.55-1.22,1.09-1.88,1.56s-1.31.91-1.95,1.33c-.15.11-.33.2-.49.3l-.5.28c-.33.19-.64.38-1,.55-.67.33-1.31.67-2,1a63.35,63.35,0,0,1-7.65,2.84c-2.54.78-5.12,1.45-8,2.14-1.45.34-3,.69-4.6,1.05Z"/><path class="cls-2" d="M213.48,57.57A194.9,194.9,0,0,0,225,39.39l.54-.93.48-.89c.32-.59.62-1.14.92-1.65l.44-.75c.14-.24.29-.47.41-.7.24-.45.48-.86.71-1.23.9-1.48,1.61-2.31,2-2.25s.43,1,.15,2.64c-.06.4-.15.85-.26,1.34a6,6,0,0,1-.2.75l-.24.8c-.17.55-.36,1.14-.57,1.76l-.32.95-.4,1c-.28.67-.58,1.36-.89,2.08-.16.36-.31.73-.49,1.1l-.57,1.11c-.38.75-.79,1.52-1.2,2.31l-.16.29-.18.29-.35.59-.72,1.2-.74,1.21L223,51l-.41.6c-.56.81-1.13,1.62-1.71,2.44l-.44.62-.47.6-1,1.21-1,1.22-.49.6-.53.59L215,61.23l-.5.55c-.17.19-.34.36-.51.54l-1,1-1.93,2-1.91,1.81-.91.87c-.31.29-.6.57-.91.84l-1.84,1.62c-.6.52-1.18,1-1.79,1.56l-1.84,1.5L200,75.05l-2,1.5-2,1.54-2.17,1.56-1.12.81c-.39.28-.76.56-1.17.83L189,83l-1.32.89-1.41.9-3,1.91,2.86-2,1.35-.94,1.25-1L191.11,81c.39-.29.73-.59,1.09-.88l1-.86,2-1.65L197,76l1.75-1.59,1.63-1.59,1.62-1.6c.53-.54,1-1.09,1.55-1.65l1.59-1.69c.27-.28.52-.59.78-.88l.78-.91,1.63-1.89L210,62.15l.86-1.07.44-.55.42-.57Z"/><path class="cls-2" d="M204.55,65a102.75,102.75,0,0,1-9.49-16.24c-2.08-4.57-2.93-7.74-2.17-7.92s3,2.65,5.77,7S205,58,208.26,63.9c3.39,6.07,5.8,10.2,8.36,14.35s5.29,8.32,9.73,14.34c-4.88-5.86-8.12-9.85-11.31-13.81S208.75,70.88,204.55,65Z"/><path class="cls-2" d="M142.38,145.38c-40.06-.64-80.28-2.7-80.2-3.81s40.39-.72,80.37,1.05c41.2,1.83,56.28,2.75,98.9,4.38C198.79,146.05,183.65,146.05,142.38,145.38Z"/></g></g></svg>